<?xml version="1.0" encoding="UTF-8" standalone="no"?>
<!DOCTYPE svg PUBLIC "-//W3C//DTD SVG 1.1//EN" "http://www.w3.org/Graphics/SVG/1.1/DTD/svg11.dtd">
<svg version="1.1" xmlns="http://www.w3.org/2000/svg" xmlns:xlink="http://www.w3.org/1999/xlink" preserveAspectRatio="xMidYMid meet" viewBox="0 0 13 13" width="13" height="13"><defs><path d="M12.7 0C12.92 0 13.1 0.18 13.1 0.41C13.1 2.93 13.1 10.08 13.1 12.59C13.1 12.82 12.92 13 12.7 13C10.16 13 2.95 13 0.41 13C0.18 13 0 12.82 0 12.59C0 10.08 0 2.93 0 0.41C0 0.18 0.18 0 0.41 0C2.95 0 10.16 0 12.7 0Z" id="a5uN0qygY"></path><path d="M3.93 5.14L1.36 0L6.5 0L11.64 0L9.07 5.14L6.5 10.29L3.93 5.14Z" id="ccZGBOud8"></path><path d="M5.18 13L2.37 7.89L2.44 13L5.18 13Z" id="a3CRfUigQN"></path><path d="M8.13 13.03L10.84 7.92L10.78 13.03L8.13 13.03Z" id="dOPvjaI4Q"></path></defs><g><g><g><use xlink:href="#a5uN0qygY" opacity="1" fill="#91979c" fill-opacity="1"></use></g><g><use xlink:href="#ccZGBOud8" opacity="1" fill="#0f1c26" fill-opacity="1"></use></g><g><use xlink:href="#a3CRfUigQN" opacity="1" fill="#0f1c26" fill-opacity="1"></use><g><use xlink:href="#a3CRfUigQN" opacity="1" fill-opacity="0" stroke="#000000" stroke-width="0" stroke-opacity="1"></use></g></g><g><use xlink:href="#dOPvjaI4Q" opacity="1" fill="#0f1c26" fill-opacity="1"></use><g><use xlink:href="#dOPvjaI4Q" opacity="1" fill-opacity="0" stroke="#000000" stroke-width="0" stroke-opacity="1"></use></g></g></g></g></svg>